# xmcd
#
# Track frame offsets:
#	150
#	12424
#	21153
#	35989
#	46079
#	56998
#	73331
#	81513
#	91128
#	102970
#	115008
#	128122
#	138143
#	148243
#	158264
#	170866
#
# Disc length: 2391 seconds
#
# Revision: 1
# Processed by: cddbd v1.5.2PL0 Copyright (c) Steve Scherf et al.
# Submitted via: audiograbber 1.83.01
#
DISCID=e2095510
DTITLE=Singing Kettles - Country Harmony
DYEAR=2006
DGENRE=Country
TTITLE0=Jealousy
TTITLE1=I Saw the Light
TTITLE2=Wedding Bells
TTITLE3=Judy
TTITLE4=Promise You Will Leave Me Never
TTITLE5=That Silver Haired Daddy of Mine
TTITLE6=Tickled to Death
TTITLE7=Be Careful with My Heart
TTITLE8=Whispering Pines
TTITLE9=Candy Kisses
TTITLE10=That Little Log Cabin of Mine
TTITLE11=Blackboard of My Heart
TTITLE12=White Silver Sands
TTITLE13=Better Times A Comin'
TTITLE14=Old Log Cabin for Sale
TTITLE15=Been a Fool Too Long
EXTD=Recorded in Tasmania, Australia
EXTT0=
EXTT1=
EXTT2=
EXTT3=
EXTT4=
EXTT5=
EXTT6=
EXTT7=
EXTT8=
EXTT9=
EXTT10=
EXTT11=
EXTT12=
EXTT13=
EXTT14=
EXTT15=
PLAYORDER=
